<svg data-v-423bf9ae="" xmlns="http://www.w3.org/2000/svg" viewBox="0 0 423 90" class="iconLeft"><!----><!----><!----><g data-v-423bf9ae="" id="ebfdde1a-0555-4403-86ab-ba47dfcecc5a" fill="white" transform="matrix(5.9940058569511425,0,0,5.9940058569511425,133.7062883325735,-2.622377085578968)"><path d="M4.99 3.42L2.60 3.42L2.60 7.66L3.12 7.66L3.12 7.66Q3.41 7.66 3.69 7.55L3.69 7.55L3.69 7.55Q3.98 7.44 4.21 7.23L4.21 7.23L4.21 7.23Q4.44 7.01 4.60 6.69L4.60 6.69L4.60 6.69Q4.76 6.36 4.79 5.93L4.79 5.93L5.09 5.93L5.09 9.63L4.79 9.63L4.79 9.63Q4.74 9.22 4.58 8.92L4.58 8.92L4.58 8.92Q4.42 8.61 4.18 8.41L4.18 8.41L4.18 8.41Q3.95 8.20 3.67 8.10L3.67 8.10L3.67 8.10Q3.40 8.00 3.12 8.00L3.12 8.00L2.60 8.00L2.60 11.20L2.60 11.20Q2.60 11.66 2.53 11.96L2.53 11.96L2.53 11.96Q2.45 12.26 2.28 12.45L2.28 12.45L2.28 12.45Q2.10 12.64 1.80 12.72L1.80 12.72L1.80 12.72Q1.50 12.80 1.05 12.80L1.05 12.80L1.05 3.98L1.05 3.98Q1.05 3.64 1.06 3.46L1.06 3.46L1.06 3.46Q1.07 3.27 1.15 3.19L1.15 3.19L1.15 3.19Q1.22 3.11 1.38 3.10L1.38 3.10L1.38 3.10Q1.54 3.08 1.83 3.08L1.83 3.08L6.13 3.08L6.13 3.08Q6.43 3.08 6.59 3.12L6.59 3.12L6.59 3.12Q6.75 3.15 6.83 3.25L6.83 3.25L6.83 3.25Q6.90 3.35 6.92 3.52L6.92 3.52L6.92 3.52Q6.93 3.70 6.93 3.97L6.93 3.97L6.93 5.91L6.54 5.91L6.54 4.94L6.54 4.94Q6.54 4.51 6.45 4.22L6.45 4.22L6.45 4.22Q6.37 3.93 6.19 3.75L6.19 3.75L6.19 3.75Q6.01 3.58 5.71 3.50L5.71 3.50L5.71 3.50Q5.42 3.42 4.99 3.42L4.99 3.42ZM9.84 2.94L9.84 2.94L9.84 10.94L9.84 10.94Q9.84 11.22 9.84 11.55L9.84 11.55L9.84 11.55Q9.84 11.87 9.92 12.14L9.92 12.14L9.92 12.14Q10.00 12.41 10.19 12.58L10.19 12.58L10.19 12.58Q10.38 12.76 10.75 12.76L10.75 12.76L10.75 12.76Q10.77 12.76 10.77 12.78L10.77 12.78L10.77 12.78Q10.77 12.80 10.75 12.80L10.75 12.80L9.82 12.80L9.82 12.80Q9.29 12.80 8.99 12.68L8.99 12.68L8.99 12.68Q8.68 12.56 8.53 12.36L8.53 12.36L8.53 12.36Q8.37 12.15 8.34 11.87L8.34 11.87L8.34 11.87Q8.30 11.59 8.30 11.27L8.30 11.27L8.30 4.57L8.30 4.57Q8.30 4.12 8.38 3.80L8.38 3.80L8.38 3.80Q8.46 3.49 8.64 3.29L8.64 3.29L8.64 3.29Q8.83 3.10 9.12 3.02L9.12 3.02L9.12 3.02Q9.41 2.94 9.84 2.94ZM13.30 7.79L15.91 7.79L15.91 7.14L15.91 7.14Q15.91 6.32 15.52 5.97L15.52 5.97L15.52 5.97Q15.13 5.63 14.31 5.63L14.31 5.63L14.31 5.63Q13.91 5.63 13.63 5.70L13.63 5.70L13.63 5.70Q13.34 5.78 13.17 5.96L13.17 5.96L13.17 5.96Q12.99 6.15 12.91 6.43L12.91 6.43L12.91 6.43Q12.83 6.72 12.83 7.14L12.83 7.14L12.83 7.30L12.43 7.30L12.43 6.18L12.43 6.18Q12.43 5.87 12.46 5.69L12.46 5.69L12.46 5.69Q12.48 5.51 12.56 5.42L12.56 5.42L12.56 5.42Q12.64 5.33 12.80 5.31L12.80 5.31L12.80 5.31Q12.96 5.28 13.25 5.28L13.25 5.28L15.91 5.28L15.91 5.28Q16.19 5.28 16.46 5.42L16.46 5.42L16.46 5.42Q16.73 5.55 16.94 5.77L16.94 5.77L16.94 5.77Q17.16 5.98 17.29 6.25L17.29 6.25L17.29 6.25Q17.42 6.53 17.42 6.81L17.42 6.81L17.42 11.27L17.42 11.27Q17.42 11.58 17.29 11.85L17.29 11.85L17.29 11.85Q17.17 12.12 16.96 12.33L16.96 12.33L16.96 12.33Q16.75 12.53 16.47 12.66L16.47 12.66L16.47 12.66Q16.20 12.78 15.91 12.80L15.91 12.80L13.30 12.80L13.30 12.80Q12.99 12.80 12.71 12.68L12.71 12.68L12.71 12.68Q12.44 12.56 12.24 12.36L12.24 12.36L12.24 12.36Q12.03 12.15 11.91 11.87L11.91 11.87L11.91 11.87Q11.79 11.59 11.79 11.27L11.79 11.27L11.79 9.31L11.79 9.31Q11.79 9.00 11.91 8.72L11.91 8.72L11.91 8.72Q12.03 8.44 12.24 8.23L12.24 8.23L12.24 8.23Q12.44 8.03 12.71 7.91L12.71 7.91L12.71 7.91Q12.99 7.79 13.30 7.79L13.30 7.79ZM15.91 10.94L15.91 8.13L14.86 8.13L14.86 8.13Q14.43 8.13 14.13 8.21L14.13 8.21L14.13 8.21Q13.84 8.29 13.65 8.46L13.65 8.46L13.65 8.46Q13.47 8.64 13.38 8.93L13.38 8.93L13.38 8.93Q13.30 9.22 13.30 9.64L13.30 9.64L13.30 10.94L13.30 10.94Q13.30 11.33 13.37 11.60L13.37 11.60L13.37 11.60Q13.44 11.87 13.59 12.06L13.59 12.06L13.59 12.06Q13.74 12.24 13.98 12.33L13.98 12.33L13.98 12.33Q14.23 12.43 14.57 12.46L14.57 12.46L14.57 12.46Q14.94 12.43 15.20 12.34L15.20 12.34L15.20 12.34Q15.45 12.25 15.61 12.07L15.61 12.07L15.61 12.07Q15.77 11.89 15.84 11.61L15.84 11.61L15.84 11.61Q15.91 11.33 15.91 10.94L15.91 10.94ZM20.77 6.49L22.28 11.30L23.39 7.85L22.76 5.89L22.76 5.89Q22.72 5.77 22.68 5.66L22.68 5.66L22.68 5.66Q22.64 5.56 22.58 5.48L22.58 5.48L22.58 5.48Q22.52 5.39 22.43 5.35L22.43 5.35L22.43 5.35Q22.33 5.30 22.20 5.30L22.20 5.30L22.18 5.30L22.18 5.30Q22.18 5.30 22.18 5.28L22.18 5.28L22.20 5.27L22.78 5.27L22.78 5.27Q23.18 5.26 23.45 5.34L23.45 5.34L23.45 5.34Q23.72 5.41 23.91 5.56L23.91 5.56L23.91 5.56Q24.10 5.71 24.22 5.95L24.22 5.95L24.22 5.95Q24.34 6.19 24.45 6.50L24.45 6.50L25.96 11.30L27.78 5.60L27.78 5.60Q27.84 5.46 27.92 5.36L27.92 5.36L27.92 5.36Q28.01 5.27 28.18 5.27L28.18 5.27L28.62 5.27L28.64 5.28L28.64 5.28Q28.64 5.30 28.62 5.30L28.62 5.30L28.62 5.30L28.62 5.30Q28.41 5.30 28.31 5.38L28.31 5.38L28.31 5.38Q28.21 5.46 28.13 5.67L28.13 5.67L25.83 12.95L25.83 12.95Q25.78 12.95 25.63 12.92L25.63 12.92L25.63 12.92Q25.49 12.90 25.32 12.80L25.32 12.80L25.32 12.80Q25.14 12.69 24.96 12.48L24.96 12.48L24.96 12.48Q24.78 12.26 24.66 11.87L24.66 11.87L23.57 8.42L22.16 12.95L22.16 12.95Q22.11 12.95 21.97 12.92L21.97 12.92L21.97 12.92Q21.83 12.90 21.66 12.80L21.66 12.80L21.66 12.80Q21.48 12.69 21.29 12.48L21.29 12.48L21.29 12.48Q21.11 12.26 20.99 11.87L20.99 11.87L19.09 5.89L19.09 5.89Q19.04 5.76 19.00 5.65L19.00 5.65L19.00 5.65Q18.96 5.54 18.89 5.46L18.89 5.46L18.89 5.46Q18.83 5.39 18.73 5.35L18.73 5.35L18.73 5.35Q18.63 5.30 18.48 5.30L18.48 5.30L18.47 5.30L18.47 5.30Q18.46 5.30 18.46 5.28L18.46 5.28L18.48 5.27L19.11 5.27L19.11 5.27Q19.50 5.27 19.78 5.35L19.78 5.35L19.78 5.35Q20.06 5.42 20.24 5.57L20.24 5.57L20.24 5.57Q20.43 5.72 20.56 5.95L20.56 5.95L20.56 5.95Q20.68 6.19 20.77 6.49L20.77 6.49ZM31.21 3.08L34.30 3.08L34.30 3.08Q34.62 3.08 34.89 3.20L34.89 3.20L34.89 3.20Q35.17 3.32 35.38 3.53L35.38 3.53L35.38 3.53Q35.59 3.74 35.71 4.02L35.71 4.02L35.71 4.02Q35.83 4.30 35.83 4.61L35.83 4.61L35.83 5.92L35.44 5.92L35.44 5.92Q35.40 5.28 35.21 4.82L35.21 4.82L35.21 4.82Q35.01 4.35 34.72 4.04L34.72 4.04L34.72 4.04Q34.43 3.73 34.05 3.58L34.05 3.58L34.05 3.58Q33.68 3.43 33.27 3.43L33.27 3.43L32.76 3.43L32.76 3.43Q32.35 3.43 32.05 3.51L32.05 3.51L32.05 3.51Q31.76 3.60 31.57 3.78L31.57 3.78L31.57 3.78Q31.38 3.96 31.29 4.25L31.29 4.25L31.29 4.25Q31.21 4.53 31.21 4.94L31.21 4.94L31.21 10.94L31.21 10.94Q31.21 11.36 31.29 11.65L31.29 11.65L31.29 11.65Q31.38 11.94 31.57 12.12L31.57 12.12L31.57 12.12Q31.76 12.30 32.05 12.39L32.05 12.39L32.05 12.39Q32.35 12.47 32.76 12.47L32.76 12.47L33.27 12.47L33.27 12.47Q33.69 12.47 34.10 12.29L34.10 12.29L34.10 12.29Q34.52 12.11 34.86 11.77L34.86 11.77L34.86 11.77Q35.19 11.42 35.40 10.91L35.40 10.91L35.40 10.91Q35.61 10.40 35.61 9.73L35.61 9.73L35.61 9.04L36.00 9.04L36.00 11.28L36.00 11.28Q36.00 11.59 35.88 11.87L35.88 11.87L35.88 11.87Q35.75 12.15 35.54 12.36L35.54 12.36L35.54 12.36Q35.33 12.56 35.06 12.68L35.06 12.68L35.06 12.68Q34.78 12.80 34.47 12.80L34.47 12.80L31.21 12.80L31.21 12.80Q30.89 12.80 30.61 12.68L30.61 12.68L30.61 12.68Q30.34 12.56 30.13 12.36L30.13 12.36L30.13 12.36Q29.92 12.15 29.80 11.87L29.80 11.87L29.80 11.87Q29.68 11.59 29.68 11.28L29.68 11.28L29.68 4.61L29.68 4.61Q29.68 4.30 29.80 4.02L29.80 4.02L29.80 4.02Q29.92 3.74 30.13 3.53L30.13 3.53L30.13 3.53Q30.34 3.32 30.61 3.20L30.61 3.20L30.61 3.20Q30.89 3.08 31.21 3.08L31.21 3.08ZM41.49 7.30L41.08 7.30L41.08 7.30Q41.03 7.01 40.92 6.72L40.92 6.72L40.92 6.72Q40.82 6.43 40.65 6.20L40.65 6.20L40.65 6.20Q40.49 5.97 40.26 5.83L40.26 5.83L40.26 5.83Q40.04 5.69 39.75 5.69L39.75 5.69L39.75 5.69Q39.35 5.69 39.13 5.99L39.13 5.99L39.13 5.99Q38.91 6.28 38.91 6.73L38.91 6.73L38.91 11.21L38.91 11.21Q38.91 11.66 38.84 11.96L38.84 11.96L38.84 11.96Q38.77 12.26 38.59 12.45L38.59 12.45L38.59 12.45Q38.42 12.64 38.12 12.72L38.12 12.72L38.12 12.72Q37.82 12.80 37.37 12.80L37.37 12.80L37.37 6.90L37.37 6.90Q37.37 6.45 37.45 6.13L37.45 6.13L37.45 6.13Q37.53 5.82 37.71 5.63L37.71 5.63L37.71 5.63Q37.89 5.43 38.19 5.35L38.19 5.35L38.19 5.35Q38.48 5.27 38.91 5.27L38.91 5.27L40.35 5.27L40.35 5.27Q40.71 5.27 40.93 5.39L40.93 5.39L40.93 5.39Q41.15 5.50 41.27 5.70L41.27 5.70L41.27 5.70Q41.40 5.90 41.44 6.17L41.44 6.17L41.44 6.17Q41.49 6.43 41.49 6.73L41.49 6.73L41.49 7.30ZM44.03 7.79L46.63 7.79L46.63 7.14L46.63 7.14Q46.63 6.32 46.25 5.97L46.25 5.97L46.25 5.97Q45.86 5.63 45.04 5.63L45.04 5.63L45.04 5.63Q44.64 5.63 44.35 5.70L44.35 5.70L44.35 5.70Q44.07 5.78 43.89 5.96L43.89 5.96L43.89 5.96Q43.72 6.15 43.64 6.43L43.64 6.43L43.64 6.43Q43.56 6.72 43.56 7.14L43.56 7.14L43.56 7.30L43.16 7.30L43.16 6.18L43.16 6.18Q43.16 5.87 43.18 5.69L43.18 5.69L43.18 5.69Q43.20 5.51 43.29 5.42L43.29 5.42L43.29 5.42Q43.37 5.33 43.53 5.31L43.53 5.31L43.53 5.31Q43.69 5.28 43.98 5.28L43.98 5.28L46.63 5.28L46.63 5.28Q46.92 5.28 47.19 5.42L47.19 5.42L47.19 5.42Q47.46 5.55 47.67 5.77L47.67 5.77L47.67 5.77Q47.89 5.98 48.02 6.25L48.02 6.25L48.02 6.25Q48.15 6.53 48.15 6.81L48.15 6.81L48.15 11.27L48.15 11.27Q48.15 11.58 48.02 11.85L48.02 11.85L48.02 11.85Q47.90 12.12 47.69 12.33L47.69 12.33L47.69 12.33Q47.48 12.53 47.20 12.66L47.20 12.66L47.20 12.66Q46.93 12.78 46.63 12.80L46.63 12.80L44.03 12.80L44.03 12.80Q43.72 12.80 43.44 12.68L43.44 12.68L43.44 12.68Q43.17 12.56 42.96 12.36L42.96 12.36L42.96 12.36Q42.76 12.15 42.64 11.87L42.64 11.87L42.64 11.87Q42.52 11.59 42.52 11.27L42.52 11.27L42.52 9.31L42.52 9.31Q42.52 9.00 42.64 8.72L42.64 8.72L42.64 8.72Q42.76 8.44 42.96 8.23L42.96 8.23L42.96 8.23Q43.17 8.03 43.44 7.91L43.44 7.91L43.44 7.91Q43.72 7.79 44.03 7.79L44.03 7.79ZM46.63 10.94L46.63 8.13L45.59 8.13L45.59 8.13Q45.16 8.13 44.86 8.21L44.86 8.21L44.86 8.21Q44.56 8.29 44.38 8.46L44.38 8.46L44.38 8.46Q44.19 8.64 44.11 8.93L44.11 8.93L44.11 8.93Q44.03 9.22 44.03 9.64L44.03 9.64L44.03 10.94L44.03 10.94Q44.03 11.33 44.10 11.60L44.10 11.60L44.10 11.60Q44.17 11.87 44.32 12.06L44.32 12.06L44.32 12.06Q44.47 12.24 44.71 12.33L44.71 12.33L44.71 12.33Q44.95 12.43 45.30 12.46L45.30 12.46L45.30 12.46Q45.67 12.43 45.92 12.34L45.92 12.34L45.92 12.34Q46.18 12.25 46.34 12.07L46.34 12.07L46.34 12.07Q46.50 11.89 46.57 11.61L46.57 11.61L46.57 11.61Q46.63 11.33 46.63 10.94L46.63 10.94Z"></path></g><!----><g data-v-423bf9ae="" id="8a0a9f23-d2cd-432a-a62f-23be6cbc0a10" transform="matrix(7.5,0,0,7.5,0,-15)" stroke="none" fill="white"><path d="M7.969 2L6 13.844 5.969 14h2.063l1.969-11.844.031-.156H7.969zM5 3.813l-.531.344-4 2.5L0 6.938v2.126l.469.281 4 2.5.531.344V9.814L2.094 8.001 5 6.188V3.813zm6 0v2.375l2.906 1.813L11 9.814v2.375l.531-.344 4-2.5.469-.281V6.938l-.469-.281-4-2.5L11 3.813z"></path></g><!----></svg>